<svg width="40" height="56" viewBox="0 0 40 56" fill="none" xmlns="http://www.w3.org/2000/svg">
<path d="M22.6019 0.054142C20.7538 0.309067 18.8206 1.65803 17.3229 3.78238C16.6007 4.80206 15.7934 6.24662 15.4216 7.2132C14.795 8.84895 11.3004 19.4176 11.3535 19.5132C11.3854 19.5663 13.4991 19.5981 16.2608 19.5875C18.9374 19.5769 21.1149 19.6194 21.1043 19.6619C21.1043 19.715 20.4564 19.8637 19.6703 19.9912C18.2895 20.2248 14.0621 20.9684 11.6403 21.4145C10.9818 21.5313 10.3976 21.6057 10.3338 21.5632C10.2701 21.5207 10.3551 21.2445 10.5463 20.8728C10.7268 20.5222 10.8649 20.2142 10.8649 20.1823C10.8649 20.0549 7.75275 20.5966 5.97892 21.0321C3.27038 21.7013 1.5709 22.4342 0.668051 23.3158C0.360021 23.6132 0.115721 23.9743 0.0519901 24.1974C-0.160445 24.9834 0.285668 25.8968 1.25225 26.6297C1.80458 27.0546 3.12167 27.6069 3.80146 27.7132C5.19291 27.9362 5.71338 27.9893 6.69058 27.9893C7.2854 27.9893 7.80586 28.0318 7.83773 28.0955C7.99705 28.3505 6.47814 30.5704 5.46908 31.5476C5.10794 31.8981 4.81053 32.2168 4.81053 32.2486C4.81053 32.2911 5.01234 32.3549 5.26727 32.3973C5.89395 32.5036 6.67996 32.8116 7.15794 33.1515C7.71027 33.5339 7.96519 34.1181 8.05016 35.2121C8.32633 38.8129 9.25042 41.5002 10.7587 43.0934L11.4916 43.8688L11.5022 43.1465C11.5022 42.6579 11.566 42.2862 11.7253 41.9675C11.9483 41.4896 12.4157 40.9691 12.5113 41.0753C12.5538 41.1072 12.5007 41.5533 12.4051 42.0525C12.2139 43.0934 12.2564 43.7732 12.575 44.931C12.8618 45.9294 13.3717 47.0022 13.5735 47.0022C13.6584 47.0022 13.7328 46.9598 13.7328 46.9066C13.7328 46.7898 14.3064 46.4499 14.7843 46.28C15.2198 46.1313 15.3898 46.2481 15.804 46.9704C16.8662 48.8823 16.9299 51.6758 15.9846 54.5968C15.8147 55.096 15.7297 55.4996 15.7828 55.4996C15.9315 55.4996 17.9071 54.1613 18.7463 53.4921C21.5398 51.2722 23.2924 48.5318 23.2924 46.4074C23.2924 46.0357 23.3455 45.7064 23.4092 45.6745C23.4623 45.632 23.8022 45.9188 24.1527 46.3012C24.5139 46.6836 24.8431 47.0022 24.8962 47.0022C25.0343 47.0022 25.6929 45.5471 25.8947 44.7717C26.1284 43.9007 26.139 42.2543 25.9159 41.5533C25.7247 40.9585 25.8203 40.8523 26.1815 41.2453C26.6807 41.7976 26.8294 42.1375 26.8931 42.9554L26.9569 43.7626L27.3605 43.2315C27.9128 42.4986 28.9537 40.3424 29.3361 39.174C29.6973 38.0694 30.1221 36.1999 30.3027 34.9466C30.4514 33.9587 30.5151 33.81 31.025 33.2683C31.4499 32.8328 32.2146 32.5036 33.0537 32.3867C33.3512 32.3442 33.5955 32.2805 33.5955 32.2486C33.5955 32.2062 33.383 31.9725 33.1175 31.7176C31.9597 30.6235 30.94 29.0727 30.0265 27.0546C29.4211 25.7163 28.9219 24.4735 28.9219 24.293C28.9219 24.2611 29.6229 24.2717 30.4939 24.3036C32.1403 24.3673 33.7654 24.5585 35.6136 24.909C38.5452 25.4507 39.14 25.4295 39.2781 24.7922C39.618 23.252 36.7076 21.6694 31.6835 20.6603C29.7929 20.2779 27.6685 20.0018 27.0206 20.0443C26.2983 20.0867 26.3196 19.8849 27.0418 19.7681C27.7747 19.6513 27.7854 19.8849 26.9569 17.5269C25.9478 14.6803 25.2255 11.8443 25.0556 10.0917C24.9175 8.77459 24.8644 8.44532 24.7688 8.44532C24.7157 8.44532 24.4501 8.90205 24.1846 9.45438C23.919 10.0067 23.6535 10.4635 23.6004 10.4635C23.4836 10.4635 23.4729 10.3041 23.6004 10.0598C23.6535 9.96423 23.781 9.59247 23.8766 9.24195C24.2271 8.02045 24.9494 6.66087 25.6079 6.00232C26.5107 5.09947 26.9675 4.89766 28.0721 4.89766C29.2193 4.89766 30.1434 5.17382 31.8216 6.02356C32.512 6.37408 33.0962 6.63962 33.1281 6.61838C33.2662 6.4803 30.632 3.65491 29.453 2.66709C27.0206 0.617096 24.7794 -0.232643 22.6019 0.054142ZM28.1784 24.7497C28.1784 25.5038 27.8916 27.2139 27.5942 28.2549C27.0312 30.1774 25.9266 31.7069 24.6307 32.3442C23.8447 32.7372 23.6641 32.7479 21.168 32.5673C19.203 32.4292 17.5672 32.4611 15.4004 32.6735C14.5294 32.7585 14.2533 32.7479 13.7647 32.6098C12.575 32.2593 11.7253 31.4626 11.0667 30.0606C10.6844 29.2427 10.3126 28.0106 10.3976 27.8725C10.4188 27.83 10.7587 27.745 11.1517 27.6707C11.5553 27.5963 12.3626 27.4264 12.968 27.2883C14.009 27.044 14.0727 27.044 14.3382 27.2139C14.9968 27.6494 16.2714 27.2989 17.3867 26.3642C17.9496 25.8968 18.3639 25.7481 20.6369 25.2383C21.8266 24.9621 23.5154 24.6541 24.2483 24.5691C24.397 24.5585 24.5245 24.5904 24.5457 24.6435C24.5563 24.7072 24.1315 24.8772 23.5898 25.0365C21.646 25.5994 20.7113 25.9181 20.6794 26.0243C20.5944 26.2898 22.3258 27.2777 23.0481 27.3839C23.9828 27.5326 24.96 26.736 25.6398 25.2808L26.054 24.3886L26.5639 24.3461C26.84 24.3248 27.318 24.3036 27.626 24.293L28.1784 24.2717V24.7497ZM20.8175 34.5642C21.5079 34.7979 22.347 35.1059 22.6975 35.2546L23.3136 35.5414L23.2393 36.0406C23.1543 36.6036 23.0481 36.8585 22.7294 37.1984C22.3258 37.6445 21.869 37.5064 20.3289 36.508C19.7872 36.1468 19.2242 35.8494 19.0968 35.8494C18.9587 35.8494 18.4382 36.1574 17.9071 36.5504C17.3973 36.9435 16.8131 37.3258 16.6113 37.4108C15.8571 37.7295 15.3792 37.3365 15.0605 36.115C14.9755 35.7644 14.9012 35.4564 14.9012 35.4139C14.9012 35.3714 15.2729 35.1909 15.7297 35.0209C18.417 33.9906 18.9587 33.9481 20.8175 34.5642Z" fill="#0075B7"/>
</svg>
