<svg width="130" height="67" viewBox="0 0 130 67" fill="none" xmlns="http://www.w3.org/2000/svg">
<path d="M27.0974 0.0649261C24.8816 0.370552 22.564 1.98782 20.7684 4.53469C19.9025 5.75719 18.9347 7.48906 18.489 8.64789C17.7376 10.609 13.548 23.2797 13.6117 23.3943C13.6499 23.458 16.184 23.4962 19.495 23.4834C22.7041 23.4707 25.3146 23.5216 25.3019 23.5726C25.3019 23.6362 24.5251 23.8145 23.5827 23.9673C21.9273 24.2475 16.859 25.1389 13.9555 25.6738C13.166 25.8138 12.4656 25.903 12.3892 25.852C12.3128 25.8011 12.4147 25.47 12.6439 25.0243C12.8604 24.6041 13.0259 24.2348 13.0259 24.1966C13.0259 24.0438 9.29475 24.6932 7.16811 25.2153C3.92085 26.0176 1.88335 26.8963 0.800925 27.9532C0.431628 28.3098 0.138737 28.7427 0.0623308 29.0102C-0.192357 29.9525 0.342487 31.0477 1.50132 31.9263C2.1635 32.4357 3.74257 33.0979 4.55757 33.2252C6.22577 33.4927 6.84975 33.5563 8.02132 33.5563C8.73444 33.5563 9.35843 33.6073 9.39663 33.6837C9.58764 33.9893 7.76663 36.6508 6.55686 37.8223C6.12389 38.2426 5.76733 38.6246 5.76733 38.6628C5.76733 38.7138 6.00928 38.7902 6.31491 38.8411C7.06624 38.9684 8.00858 39.3377 8.58163 39.7452C9.24382 40.2037 9.54944 40.9041 9.65132 42.2157C9.98241 46.5327 11.0903 49.7545 12.8986 51.6646L13.7773 52.5942L13.79 51.7283C13.79 51.1425 13.8664 50.6968 14.0574 50.3148C14.3248 49.7417 14.8851 49.1177 14.9998 49.2451C15.0507 49.2833 14.987 49.8181 14.8724 50.4166C14.6432 51.6646 14.6941 52.4796 15.0762 53.8677C15.42 55.0647 16.0312 56.3509 16.2732 56.3509C16.3751 56.3509 16.4642 56.2999 16.4642 56.2363C16.4642 56.0962 17.1519 55.6887 17.7249 55.4849C18.247 55.3066 18.4508 55.4467 18.9474 56.3127C20.2208 58.6048 20.2973 61.954 19.1639 65.4559C18.9601 66.0545 18.8583 66.5384 18.9219 66.5384C19.1002 66.5384 21.4688 64.9338 22.4748 64.1316C25.824 61.4701 27.9251 58.1846 27.9251 55.6377C27.9251 55.192 27.9888 54.7973 28.0652 54.7591C28.1289 54.7081 28.5364 55.052 28.9566 55.5104C29.3896 55.9688 29.7844 56.3509 29.848 56.3509C30.0136 56.3509 30.8031 54.6063 31.0451 53.6766C31.3252 52.6324 31.338 50.6586 31.0705 49.8181C30.8413 49.105 30.9559 48.9777 31.3889 49.4488C31.9874 50.111 32.1657 50.5185 32.2421 51.4991L32.3185 52.4669L32.8024 51.8302C33.4646 50.9515 34.7126 48.3664 35.171 46.9656C35.604 45.6413 36.1133 43.4 36.3298 41.8973C36.5081 40.713 36.5845 40.5348 37.1958 39.8853C37.7051 39.3632 38.622 38.9684 39.628 38.8284C39.9846 38.7774 40.2775 38.701 40.2775 38.6628C40.2775 38.6119 40.0228 38.3317 39.7044 38.0261C38.3164 36.7145 37.0939 34.8552 35.9987 32.4357C35.2729 30.8312 34.6744 29.3413 34.6744 29.1248C34.6744 29.0866 35.5148 29.0993 36.5591 29.1375C38.5329 29.2139 40.4812 29.4431 42.697 29.8634C46.2117 30.5128 46.9248 30.4873 47.0904 29.7233C47.4979 27.8768 44.0087 25.9794 37.9853 24.7696C35.7186 24.3112 33.1717 23.9801 32.3949 24.031C31.529 24.082 31.5544 23.84 32.4204 23.6999C33.2991 23.5598 33.3118 23.84 32.3185 21.013C31.1087 17.6002 30.2428 14.2001 30.0391 12.0989C29.8735 10.5198 29.8098 10.1251 29.6952 10.1251C29.6316 10.1251 29.3132 10.6727 28.9948 11.3348C28.6765 11.997 28.3581 12.5446 28.2944 12.5446C28.1544 12.5446 28.1416 12.3536 28.2944 12.0607C28.3581 11.9461 28.5109 11.5004 28.6255 11.0802C29.0458 9.6157 29.9117 7.98571 30.7012 7.19617C31.7837 6.11375 32.3312 5.8718 33.6556 5.8718C35.0309 5.8718 36.1388 6.20289 38.1508 7.22164C38.9786 7.64188 39.679 7.96024 39.7172 7.93477C39.8827 7.76922 36.7246 4.38188 35.3111 3.19758C32.3949 0.739845 29.708 -0.278908 27.0974 0.0649261ZM33.783 29.6723C33.783 30.5765 33.4391 32.6267 33.0826 33.8747C32.4076 36.1796 31.0833 38.0134 29.5297 38.7774C28.5873 39.2486 28.3708 39.2613 25.3783 39.0448C23.0224 38.8793 21.0613 38.9175 18.4635 39.1722C17.4193 39.2741 17.0882 39.2613 16.5024 39.0958C15.0762 38.6755 14.0574 37.7205 13.2679 36.0395C12.8094 35.059 12.3637 33.5818 12.4656 33.4163C12.4911 33.3653 12.8986 33.2634 13.3698 33.1743C13.8537 33.0852 14.8215 32.8814 15.5473 32.7159C16.7953 32.423 16.8717 32.423 17.1901 32.6267C17.9796 33.1488 19.5077 32.7286 20.8448 31.608C21.5198 31.0477 22.0164 30.8694 24.7416 30.2581C26.1678 29.927 28.1926 29.5577 29.0712 29.4559C29.2495 29.4431 29.4023 29.4813 29.4278 29.545C29.4405 29.6214 28.9312 29.8252 28.2817 30.0162C25.9513 30.6911 24.8307 31.0731 24.7925 31.2005C24.6906 31.5188 26.7663 32.7031 27.6323 32.8305C28.7529 33.0088 29.9244 32.0537 30.7394 30.3091L31.2361 29.2394L31.8473 29.1884C32.1784 29.163 32.7515 29.1375 33.1208 29.1248L33.783 29.0993V29.6723ZM24.958 41.4389C25.7858 41.7191 26.7918 42.0884 27.212 42.2666L27.9506 42.6105L27.8615 43.209C27.7596 43.8839 27.6323 44.1895 27.2502 44.597C26.7663 45.1319 26.2187 44.9663 24.3723 43.7693C23.7228 43.3363 23.0479 42.9798 22.8951 42.9798C22.7295 42.9798 22.1055 43.3491 21.4688 43.8202C20.8576 44.2914 20.1572 44.7498 19.9152 44.8517C19.0111 45.2338 18.438 44.7626 18.056 43.2981C17.9541 42.8779 17.865 42.5086 17.865 42.4577C17.865 42.4067 18.3107 42.1902 18.8583 41.9865C22.0801 40.7513 22.7295 40.7003 24.958 41.4389Z" fill="white"/>
<path d="M21.8126 33.4545C21.8126 33.5436 21.6726 34.5878 21.4943 35.7849C21.0486 38.8411 20.9976 38.5737 22.1055 38.4718C24.2831 38.2681 24.6269 38.1152 23.1879 37.9624C22.755 37.9242 22.3602 37.8478 22.2965 37.7842C22.2456 37.7332 22.1692 36.7272 22.1183 35.5556C22.0673 34.3841 21.9782 33.3908 21.9145 33.3526C21.8636 33.3144 21.8126 33.3653 21.8126 33.4545Z" fill="white"/>
<path d="M66.3829 17.6384V18.9118H68.1657H69.9486V23.3688V27.8259H71.604H73.2595V23.3688V18.9118H74.9786H76.6978V17.6384V16.3649H71.5404H66.3829V17.6384Z" fill="white"/>
<path d="M77.9713 22.0954V27.8259H82.5556H87.14V26.5524V25.279H84.1474H81.1548V24.2602V23.2415H83.7017H86.2486V22.0317V20.822H83.7017H81.1548V19.8669V18.9118L84.0583 18.8863L86.949 18.8481L86.9872 17.6002L87.0254 16.3649H82.492H77.9713V22.0954Z" fill="white"/>
<path d="M92.3738 16.8998C91.6352 18.6189 87.7258 27.4184 87.6366 27.5966C87.522 27.8131 87.6366 27.8259 89.203 27.8259H90.8966L91.3169 26.7434L91.7498 25.661H94.1948H96.6271L97.0601 26.7434L97.493 27.8259H99.1867H100.88L100.626 27.2146C100.486 26.8835 99.3523 24.3239 98.1043 21.5224L95.8503 16.4286L94.233 16.3904L92.6158 16.3522L92.3738 16.8998ZM94.9462 21.4841L95.6466 23.2415H94.1821C93.0615 23.2415 92.7304 23.2033 92.7813 23.0759C92.8195 22.9995 93.087 22.3246 93.3798 21.586C93.6727 20.8474 93.9656 20.1088 94.0293 19.9433C94.093 19.7777 94.1694 19.6631 94.1948 19.6886C94.2203 19.7141 94.5641 20.5291 94.9462 21.4841Z" fill="white"/>
<path d="M101.785 22.0954V27.8259H103.313H104.841L104.866 24.9734L104.904 22.1209L106.293 24.4003L107.681 26.6798H108.419H109.17L110.597 24.2602L112.036 21.8407L112.074 24.8333L112.099 27.8259H113.628H115.156V25.6228C115.156 24.4258 115.117 21.8407 115.066 19.8924L114.99 16.3649H113.691H112.392L110.495 19.5613C109.451 21.3313 108.534 22.7703 108.47 22.7703C108.406 22.7703 107.477 21.3441 106.42 19.5995L104.497 16.4286L103.134 16.3904L101.785 16.3522V22.0954Z" fill="white"/>
<path d="M94.7297 31.8499C91.7626 32.3848 89.2921 34.1676 88.0951 36.6635C85.7647 41.5026 87.8531 46.9911 92.7813 48.9649C93.3034 49.1687 94.2203 49.4234 94.8443 49.538C99.5051 50.353 103.886 48.3919 105.668 44.7116C107.999 39.8726 105.91 34.3841 100.982 32.4102C99.174 31.6844 96.8054 31.4806 94.7297 31.8499ZM98.499 36.7272C100.129 37.5167 101.02 39.4906 100.677 41.5153C100.333 43.5146 99.0848 44.7881 97.2765 44.9791C95.3664 45.1828 93.6982 43.9731 93.1888 42.0247C92.5648 39.5924 93.66 37.2111 95.7102 36.5362C96.4615 36.2942 97.7986 36.3834 98.499 36.7272Z" fill="white"/>
<path d="M53.1392 40.6748V49.347H56.0681H58.997V47.2458V45.1446H60.818C64.8803 45.1446 67.4145 43.9603 68.6115 41.528C70.2033 38.2808 68.9681 34.4223 65.8354 32.9323C64.1545 32.1301 64.0016 32.1173 58.3348 32.0664L53.1392 32.0155V40.6748ZM62.4353 36.8036C63.1612 37.2366 63.3904 37.6695 63.3904 38.5864C63.3904 39.5033 63.1612 39.9363 62.4353 40.3692C62.0915 40.5602 61.6967 40.6239 60.4997 40.6621L58.997 40.713V38.5864V36.4598L60.4997 36.5107C61.6967 36.5489 62.0915 36.6126 62.4353 36.8036Z" fill="white"/>
<path d="M71.0947 40.6876V49.347H78.2896H85.4845L85.459 47.1439L85.4208 44.9536L81.1294 44.9154L76.8251 44.8899V43.8075V42.7251H80.4544H84.0837V40.6239V38.5227H80.4544H76.8251V37.504V36.4852H80.9638H85.1025V34.2567V32.0282H78.0986H71.0947V40.6876Z" fill="white"/>
<path d="M108.661 40.6876V49.347H115.474H122.287V47.1184V44.8899H118.403H114.519V38.4591V32.0282H111.59H108.661V40.6876Z" fill="white"/>
<path d="M123.815 40.6876V49.347H126.744H129.673V40.6876V32.0282H126.744H123.815V40.6876Z" fill="white"/>
</svg>
