<?xml version="1.0" standalone="no"?>
<!DOCTYPE svg PUBLIC "-//W3C//DTD SVG 20010904//EN"
 "http://www.w3.org/TR/2001/REC-SVG-20010904/DTD/svg10.dtd">
<svg version="1.0" xmlns="http://www.w3.org/2000/svg"
 width="1280.000000pt" height="1280.000000pt" viewBox="0 0 1280.000000 1280.000000"
 preserveAspectRatio="xMidYMid meet">

<g transform="translate(0.000000,1280.000000) scale(0.100000,-0.100000)"
fill="#FFFFFF" stroke="none">
<path d="M3855 9010 c-174 -24 -356 -151 -497 -351 -68 -96 -144 -232 -179
-323 -59 -154 -388 -1149 -383 -1158 3 -5 202 -8 462 -7 252 1 457 -3 456 -7
0 -5 -61 -19 -135 -31 -130 -22 -528 -92 -756 -134 -62 -11 -117 -18 -123 -14
-6 4 2 30 20 65 17 33 30 62 30 65 0 12 -293 -39 -460 -80 -255 -63 -415 -132
-500 -215 -29 -28 -52 -62 -58 -83 -20 -74 22 -160 113 -229 52 -40 176 -92
240 -102 131 -21 180 -26 272 -26 56 0 105 -4 108 -10 15 -24 -128 -233 -223
-325 -34 -33 -62 -63 -62 -66 0 -4 19 -10 43 -14 59 -10 133 -39 178 -71 52
-36 76 -91 84 -194 26 -339 113 -592 255 -742 l69 -73 1 68 c0 46 6 81 21 111
21 45 65 94 74 84 4 -3 -1 -45 -10 -92 -18 -98 -14 -162 16 -271 27 -94 75
-195 94 -195 8 0 15 4 15 9 0 11 54 43 99 59 41 14 57 3 96 -65 100 -180 106
-443 17 -718 -16 -47 -24 -85 -19 -85 14 0 200 126 279 189 263 209 428 467
428 667 0 35 5 66 11 69 5 4 37 -23 70 -59 34 -36 65 -66 70 -66 13 0 75 137
94 210 22 82 23 237 2 303 -18 56 -9 66 25 29 47 -52 61 -84 67 -161 l6 -76
38 50 c52 69 150 272 186 382 34 104 74 280 91 398 14 93 20 107 68 158 40 41
112 72 191 83 28 4 51 10 51 13 0 4 -20 26 -45 50 -109 103 -205 249 -291 439
-57 126 -104 243 -104 260 0 3 66 2 148 -1 155 -6 308 -24 482 -57 276 -51
332 -49 345 11 32 145 -242 294 -715 389 -178 36 -378 62 -439 58 -68 -4 -66
15 2 26 69 11 70 -11 -8 211 -95 268 -163 535 -179 700 -13 124 -18 155 -27
155 -5 0 -30 -43 -55 -95 -25 -52 -50 -95 -55 -95 -11 0 -12 15 0 38 5 9 17
44 26 77 33 115 101 243 163 305 85 85 128 104 232 104 108 0 195 -26 353
-106 65 -33 120 -58 123 -56 13 13 -235 279 -346 372 -229 193 -440 273 -645
246z m525 -2325 c0 -71 -27 -232 -55 -330 -53 -181 -157 -325 -279 -385 -74
-37 -91 -38 -326 -21 -185 13 -339 10 -543 -10 -82 -8 -108 -7 -154 6 -112 33
-192 108 -254 240 -36 77 -71 193 -63 206 2 4 34 12 71 19 38 7 114 23 171 36
98 23 104 23 129 7 62 -41 182 -8 287 80 53 44 92 58 306 106 112 26 271 55
340 63 14 1 26 -2 28 -7 1 -6 -39 -22 -90 -37 -183 -53 -271 -83 -274 -93 -8
-25 155 -118 223 -128 88 -14 180 61 244 198 l39 84 48 4 c26 2 71 4 100 5
l52 2 0 -45z m-693 -924 c65 -22 144 -51 177 -65 l58 -27 -7 -47 c-8 -53 -18
-77 -48 -109 -38 -42 -81 -29 -226 65 -51 34 -104 62 -116 62 -13 0 -62 -29
-112 -66 -48 -37 -103 -73 -122 -81 -71 -30 -116 7 -146 122 -8 33 -15 62 -15
66 0 4 35 21 78 37 253 97 304 101 479 43z"/>
<path d="M3440 6388 c0 -7 -11 -89 -25 -183 -35 -240 -39 -219 48 -211 171 16
198 28 85 40 -34 3 -65 9 -70 14 -4 4 -10 83 -14 175 -4 92 -11 170 -16 173
-4 3 -8 -1 -8 -8z"/>
<path d="M6940 7630 l0 -100 140 0 140 0 0 -350 0 -350 130 0 130 0 0 350 0
350 135 0 135 0 0 100 0 100 -405 0 -405 0 0 -100z"/>
<path d="M7850 7280 l0 -450 360 0 360 0 0 100 0 100 -235 0 -235 0 0 80 0 80
200 0 200 0 0 95 0 95 -200 0 -200 0 0 75 0 75 228 2 227 3 3 98 3 97 -356 0
-355 0 0 -450z"/>
<path d="M8981 7688 c-58 -135 -365 -826 -372 -840 -9 -17 0 -18 123 -18 l133
0 33 85 34 85 192 0 191 0 34 -85 34 -85 133 0 133 0 -20 48 c-11 26 -100 227
-198 447 l-177 400 -127 3 -127 3 -19 -43z m202 -360 l55 -138 -115 0 c-88 0
-114 3 -110 13 3 6 24 59 47 117 23 58 46 116 51 129 5 13 11 22 13 20 2 -2
29 -66 59 -141z"/>
<path d="M9720 7280 l0 -450 120 0 120 0 2 224 3 224 109 -179 109 -179 58 0
59 0 112 190 113 190 3 -235 2 -235 120 0 120 0 0 173 c0 94 -3 297 -7 450
l-6 277 -102 0 -102 0 -149 -251 c-82 -139 -154 -252 -159 -252 -5 0 -78 112
-161 249 l-151 249 -107 3 -106 3 0 -451z"/>
<path d="M9166 6514 c-233 -42 -427 -182 -521 -378 -183 -380 -19 -811 368
-966 41 -16 113 -36 162 -45 366 -64 710 90 850 379 183 380 19 811 -368 966
-142 57 -328 73 -491 44z m296 -383 c128 -62 198 -217 171 -376 -27 -157 -125
-257 -267 -272 -150 -16 -281 79 -321 232 -49 191 37 378 198 431 59 19 164
12 219 -15z"/>
<path d="M5900 5821 l0 -681 230 0 230 0 0 165 0 165 143 0 c319 0 518 93 612
284 125 255 28 558 -218 675 -132 63 -144 64 -589 68 l-408 4 0 -680z m730
304 c57 -34 75 -68 75 -140 0 -72 -18 -106 -75 -140 -27 -15 -58 -20 -152 -23
l-118 -4 0 167 0 167 118 -4 c94 -3 125 -8 152 -23z"/>
<path d="M7310 5820 l0 -680 565 0 565 0 -2 173 -3 172 -337 3 -338 2 0 85 0
85 285 0 285 0 0 165 0 165 -285 0 -285 0 0 80 0 80 325 0 325 0 0 175 0 175
-550 0 -550 0 0 -680z"/>
<path d="M10260 5820 l0 -680 535 0 535 0 0 175 0 175 -305 0 -305 0 0 505 0
505 -230 0 -230 0 0 -680z"/>
<path d="M11450 5820 l0 -680 230 0 230 0 0 680 0 680 -230 0 -230 0 0 -680z"/>
</g>
</svg>
