<svg width="21" height="21" viewBox="0 0 21 21" fill="none" xmlns="http://www.w3.org/2000/svg">
<path d="M11.9848 21L10.5 19.5152L14.2652 15.75L5.25 6.73485L1.48485 10.5L0 9.01515L1.48485 7.47727L0 5.99242L2.22727 3.76515L0.742424 2.22727L2.22727 0.742424L3.76515 2.22727L5.99242 0L7.47727 1.48485L9.01515 0L10.5 1.48485L6.73485 5.25L15.75 14.2652L19.5152 10.5L21 11.9848L19.5152 13.5227L21 15.0076L18.7727 17.2348L20.2576 18.7727L18.7727 20.2576L17.2348 18.7727L15.0076 21L13.5227 19.5152L11.9848 21Z" fill="#C1C2C1" fill-opacity="0.85"/>
</svg>
