<svg width="20" height="22" viewBox="0 0 20 22" fill="none" xmlns="http://www.w3.org/2000/svg">
<path d="M8.88946 10.1912C10.2647 10.1912 11.5837 9.65436 12.5562 8.69875C13.5286 7.74314 14.075 6.44705 14.075 5.09561C14.075 3.74417 13.5286 2.44808 12.5562 1.49247C11.5837 0.536857 10.2647 0 8.88946 0C7.51417 0 6.19522 0.536857 5.22274 1.49247C4.25027 2.44808 3.70394 3.74417 3.70394 5.09561C3.70394 6.44705 4.25027 7.74314 5.22274 8.69875C6.19522 9.65436 7.51417 10.1912 8.88946 10.1912ZM2.59276 11.6471C1.90512 11.6471 1.24564 11.9155 0.759401 12.3933C0.273165 12.8711 0 13.5192 0 14.1949V14.5589C0 16.3009 1.12822 17.7742 2.7298 18.7759C4.08545 19.6239 5.84334 20.1823 7.77827 20.338V19.0772C7.77836 18.6911 7.93451 18.3209 8.21238 18.0479L11.5726 14.746C11.361 13.6926 11.5204 12.5998 12.0245 11.6471H2.59276ZM18.9168 16.4042C18.4839 16.8299 17.9504 17.1435 17.364 17.3169C16.7776 17.4903 16.1566 17.5181 15.5565 17.3979V17.8354C15.5565 17.9319 15.5175 18.0245 15.4481 18.0927C15.3786 18.161 15.2844 18.1993 15.1862 18.1993H14.4454C14.3471 18.1993 14.2529 18.2377 14.1835 18.3059C14.114 18.3742 14.075 18.4668 14.075 18.5633V19.2913C14.075 19.3878 14.0359 19.4804 13.9665 19.5486C13.897 19.6169 13.8028 19.6552 13.7046 19.6552H12.9638C12.8656 19.6552 12.7713 19.6936 12.7019 19.7618C12.6324 19.8301 12.5934 19.9227 12.5934 20.0192V20.7471C12.5934 20.8437 12.5544 20.9362 12.4849 21.0045C12.4154 21.0728 12.3212 21.1111 12.223 21.1111H9.25985C9.16162 21.1111 9.0674 21.0728 8.99794 21.0045C8.92848 20.9362 8.88946 20.8437 8.88946 20.7471V19.078C8.88948 18.9816 8.92837 18.8892 8.99761 18.821L12.8134 15.0714C12.5875 14.4582 12.5333 13.7968 12.6566 13.156C12.7798 12.5153 13.076 11.9189 13.5141 11.4292C13.9522 10.9394 14.5162 10.5743 15.147 10.372C15.7778 10.1697 16.4524 10.1377 17.1001 10.2792C17.7479 10.4208 18.345 10.7307 18.8292 11.1767C19.3133 11.6226 19.6666 12.1882 19.8522 12.8142C20.0378 13.4403 20.0488 14.1038 19.8841 14.7355C19.7194 15.3671 19.3858 15.943 18.9168 16.4042ZM16.8203 13.317C16.8887 13.3865 16.9704 13.442 17.0608 13.4801C17.1512 13.5183 17.2484 13.5384 17.3467 13.5392C17.4451 13.5401 17.5426 13.5216 17.6337 13.485C17.7247 13.4484 17.8074 13.3944 17.877 13.326C17.9465 13.2577 18.0015 13.1764 18.0388 13.0869C18.076 12.9975 18.0948 12.9016 18.0939 12.805C18.0931 12.7083 18.0726 12.6128 18.0338 12.524C17.995 12.4352 17.9386 12.3548 17.8678 12.2877C17.7281 12.1551 17.541 12.0817 17.3467 12.0834C17.1525 12.085 16.9667 12.1616 16.8294 12.2966C16.692 12.4315 16.6141 12.6141 16.6124 12.805C16.6107 12.9958 16.6854 13.1797 16.8203 13.317Z" fill="#2764E4"/>
</svg>
